<svg width="192" height="192" viewBox="0 0 192 192" xmlns="http://www.w3.org/2000/svg">
  <rect width="192" height="192" rx="42" fill="#0f1628"/>
  <circle cx="32" cy="32" r="1.2" fill="white" opacity="0.3"/>
  <circle cx="165" cy="27" r="1.4" fill="white" opacity="0.4"/>
  <circle cx="22" cy="85" r="0.9" fill="white" opacity="0.2"/>
  <circle cx="175" cy="75" r="1.1" fill="white" opacity="0.3"/>
  <circle cx="96" cy="118" r="62" fill="#4CAF50"/>
  <circle cx="85" cy="110" r="9" fill="rgba(0,80,0,0.12)"/>
  <circle cx="112" cy="125" r="6.5" fill="rgba(0,80,0,0.08)"/>
  <circle cx="96" cy="118" r="62" fill="none" stroke="rgba(150,255,150,0.15)" stroke-width="1"/>
  <g transform="translate(96, 52)">
    <ellipse cx="0" cy="0" rx="17" ry="15" fill="#FFD93D"/>
    <ellipse cx="-6" cy="-3" rx="5" ry="5.5" fill="white"/>
    <ellipse cx="6" cy="-3" rx="5" ry="5.5" fill="white"/>
    <circle cx="-5" cy="-2" r="3" fill="#2d2d2d"/>
    <circle cx="7" cy="-2" r="3" fill="#2d2d2d"/>
    <circle cx="-6" cy="-4" r="1.3" fill="white"/>
    <circle cx="6" cy="-4" r="1.3" fill="white"/>
    <path d="M-3 5 Q0 10 3 5" fill="none" stroke="#2d2d2d" stroke-width="1.3" stroke-linecap="round"/>
    <ellipse cx="2" cy="-15" rx="4.5" ry="2.2" fill="#6BCB77" transform="rotate(-15, 2, -15)"/>
  </g>
  <circle cx="160" cy="32" r="11" fill="#f5f0e0" opacity="0.8"/>
</svg>
