<svg width="192" height="192" viewBox="0 0 192 192" xmlns="http://www.w3.org/2000/svg">
  <defs>
    <linearGradient id="bg" x1="0" y1="0" x2="0" y2="1">
      <stop offset="0%" stop-color="#111827"/>
      <stop offset="100%" stop-color="#0a0e18"/>
    </linearGradient>
  </defs>
  <rect width="192" height="192" rx="42" fill="url(#bg)"/>
  <!-- Subtle texture dots -->
  <circle cx="38" cy="38" r="0.6" fill="white" opacity="0.04"/>
  <circle cx="77" cy="38" r="0.6" fill="white" opacity="0.04"/>
  <circle cx="115" cy="38" r="0.6" fill="white" opacity="0.04"/>
  <circle cx="154" cy="38" r="0.6" fill="white" opacity="0.04"/>
  <circle cx="38" cy="77" r="0.6" fill="white" opacity="0.04"/>
  <circle cx="77" cy="77" r="0.6" fill="white" opacity="0.04"/>
  <circle cx="115" cy="77" r="0.6" fill="white" opacity="0.04"/>
  <circle cx="154" cy="77" r="0.6" fill="white" opacity="0.04"/>
  <circle cx="38" cy="115" r="0.6" fill="white" opacity="0.04"/>
  <circle cx="77" cy="115" r="0.6" fill="white" opacity="0.04"/>
  <circle cx="115" cy="115" r="0.6" fill="white" opacity="0.04"/>
  <circle cx="154" cy="115" r="0.6" fill="white" opacity="0.04"/>
  <circle cx="38" cy="154" r="0.6" fill="white" opacity="0.04"/>
  <circle cx="77" cy="154" r="0.6" fill="white" opacity="0.04"/>
  <circle cx="115" cy="154" r="0.6" fill="white" opacity="0.04"/>
  <circle cx="154" cy="154" r="0.6" fill="white" opacity="0.04"/>
  <!-- "b" -->
  <text x="45" y="140" font-family="Georgia, 'Times New Roman', serif" font-size="128" font-weight="700" fill="#e8e6f0">b</text>
  <!-- Green dot -->
  <circle cx="139" cy="124" r="13" fill="#4ade80"/>
  <ellipse cx="141.5" cy="119.5" rx="5.5" ry="2.7" fill="#6ee7a0" transform="rotate(-30, 141.5, 119.5)"/>
</svg>
