<svg xmlns="http://www.w3.org/2000/svg" viewBox="0 0 1200 1850" width="1200" height="1850">
  <defs>
    <style>
      @import url('https://fonts.googleapis.com/css2?family=DM+Sans:wght@400;500;600;700&amp;family=JetBrains+Mono:wght@400;500&amp;display=swap');
      text { font-family: 'DM Sans', sans-serif; }
      .mono { font-family: 'JetBrains Mono', monospace; }
    </style>
  </defs>

  <!-- Background -->
  <rect width="1200" height="1850" fill="#0a0e18" rx="16"/>

  <!-- ═══ HEADER ═══ -->
  <rect x="550" y="30" width="100" height="100" rx="22" fill="url(#greenGrad)"/>
  <text x="600" y="98" text-anchor="middle" fill="#0a0e18" font-size="48" font-weight="700" font-family="Georgia, serif">t</text>
  <text x="600" y="165" text-anchor="middle" fill="white" font-size="38" font-weight="700" letter-spacing="8">T E N D</text>
  <text x="600" y="192" text-anchor="middle" fill="rgba(255,255,255,0.2)" font-size="11" font-weight="700" letter-spacing="4" class="mono">SYSTEM ARCHITECTURE</text>

  <defs>
    <linearGradient id="greenGrad" x1="0" y1="0" x2="1" y2="1">
      <stop offset="0%" stop-color="#4ade80"/>
      <stop offset="100%" stop-color="#22c55e"/>
    </linearGradient>
  </defs>

  <!-- ═══ EXPERIENCE LAYER ═══ -->
  <text x="40" y="250" fill="rgba(255,255,255,0.2)" font-size="11" font-weight="700" letter-spacing="3">E X P E R I E N C E</text>

  <!-- Card: Habit Tracking -->
  <rect x="30" y="270" width="270" height="180" rx="12" fill="rgba(255,255,255,0.025)" stroke="rgba(255,255,255,0.06)"/>
  <rect x="40" y="285" width="32" height="32" rx="8" fill="rgba(74,222,128,0.15)"/>
  <text x="56" y="307" text-anchor="middle" fill="white" font-size="13" font-weight="700" class="mono">H</text>
  <text x="82" y="298" fill="white" font-size="14" font-weight="700">Habit Tracking</text>
  <text x="82" y="314" fill="rgba(255,255,255,0.3)" font-size="11">Build + Quit modes</text>
  <rect x="210" y="278" width="76" height="20" rx="4" fill="rgba(74,222,128,0.2)"/>
  <text x="248" y="292" text-anchor="middle" fill="#4ade80" font-size="9" font-weight="700" class="mono">DUAL MODE</text>
  <text x="50" y="345" fill="rgba(255,255,255,0.4)" font-size="12">· Build → daily checkbox</text>
  <text x="50" y="365" fill="rgba(255,255,255,0.4)" font-size="12">· Quit → auto sobriety timer</text>
  <text x="50" y="385" fill="rgba(255,255,255,0.4)" font-size="12">· Pause / resume per habit</text>
  <text x="50" y="405" fill="rgba(255,255,255,0.4)" font-size="12">· Rename + custom colors</text>

  <!-- Card: Urge System -->
  <rect x="320" y="270" width="270" height="180" rx="12" fill="rgba(255,255,255,0.025)" stroke="rgba(255,255,255,0.06)"/>
  <rect x="330" y="285" width="32" height="32" rx="8" fill="rgba(251,113,133,0.15)"/>
  <text x="346" y="307" text-anchor="middle" fill="white" font-size="13" font-weight="700" class="mono">U</text>
  <text x="372" y="298" fill="white" font-size="14" font-weight="700">Urge System</text>
  <text x="372" y="314" fill="rgba(255,255,255,0.3)" font-size="11">Crisis intervention</text>
  <rect x="500" y="278" width="66" height="20" rx="4" fill="rgba(251,113,133,0.2)"/>
  <text x="533" y="292" text-anchor="middle" fill="#fb7185" font-size="9" font-weight="700" class="mono">3 TOOLS</text>
  <text x="340" y="345" fill="rgba(255,255,255,0.4)" font-size="12">· Breathe → 4-4-6 guided cycle</text>
  <text x="340" y="365" fill="rgba(255,255,255,0.4)" font-size="12">· Write → journal + trigger tags</text>
  <text x="340" y="385" fill="rgba(255,255,255,0.4)" font-size="12">· Redirect → physical activity</text>
  <text x="340" y="405" fill="rgba(255,255,255,0.4)" font-size="12">· +3 coins per urge survived</text>

  <!-- Card: Planet & Creatures -->
  <rect x="610" y="270" width="270" height="180" rx="12" fill="rgba(255,255,255,0.025)" stroke="rgba(255,255,255,0.06)"/>
  <rect x="620" y="285" width="32" height="32" rx="8" fill="rgba(251,191,36,0.15)"/>
  <text x="636" y="307" text-anchor="middle" fill="white" font-size="13" font-weight="700" class="mono">P</text>
  <text x="662" y="298" fill="white" font-size="14" font-weight="700">Planet &amp; Creatures</text>
  <text x="662" y="314" fill="rgba(255,255,255,0.3)" font-size="11">Gamified progress</text>
  <rect x="790" y="278" width="72" height="20" rx="4" fill="rgba(251,191,36,0.2)"/>
  <text x="826" y="292" text-anchor="middle" fill="#fbbf24" font-size="9" font-weight="700" class="mono">5 STAGES</text>
  <text x="630" y="345" fill="rgba(255,255,255,0.4)" font-size="12">· Egg → Hatchling → Evolved</text>
  <text x="630" y="365" fill="rgba(255,255,255,0.4)" font-size="12">· 72h egg progression w/ anim</text>
  <text x="630" y="385" fill="rgba(255,255,255,0.4)" font-size="12">· Creature mood reactions</text>
  <text x="630" y="405" fill="rgba(255,255,255,0.4)" font-size="12">· Default foliage + shop items</text>

  <!-- Card: Subscription -->
  <rect x="900" y="270" width="270" height="180" rx="12" fill="rgba(255,255,255,0.025)" stroke="rgba(255,255,255,0.06)"/>
  <rect x="910" y="285" width="32" height="32" rx="8" fill="rgba(167,139,250,0.15)"/>
  <text x="926" y="307" text-anchor="middle" fill="white" font-size="13" font-weight="700" class="mono">S</text>
  <text x="952" y="298" fill="white" font-size="14" font-weight="700">Subscription</text>
  <text x="952" y="314" fill="rgba(255,255,255,0.3)" font-size="11">Freemium model</text>
  <rect x="1098" y="278" width="56" height="20" rx="4" fill="rgba(167,139,250,0.2)"/>
  <text x="1126" y="292" text-anchor="middle" fill="#a78bfa" font-size="9" font-weight="700" class="mono">TEND+</text>
  <text x="920" y="345" fill="rgba(255,255,255,0.4)" font-size="12">· Free → 3 habits, all recovery</text>
  <text x="920" y="365" fill="rgba(255,255,255,0.4)" font-size="12">· Tend+ → $4.99/mo, $29.99/yr</text>
  <text x="920" y="385" fill="rgba(255,255,255,0.4)" font-size="12">· Recovery features never gated</text>
  <text x="920" y="405" fill="rgba(255,255,255,0.4)" font-size="12">· Stripe + StoreKit billing</text>

  <!-- Connector: NEXT.JS APP -->
  <line x1="600" y1="465" x2="600" y2="490" stroke="rgba(255,255,255,0.06)" stroke-width="1"/>
  <rect x="510" y="490" width="180" height="28" rx="4" fill="rgba(255,255,255,0.02)" stroke="rgba(255,255,255,0.08)"/>
  <text x="600" y="509" text-anchor="middle" fill="rgba(255,255,255,0.3)" font-size="9" font-weight="700" letter-spacing="1.5" class="mono">NEXT.JS 15 APP</text>
  <line x1="600" y1="518" x2="600" y2="543" stroke="rgba(255,255,255,0.06)" stroke-width="1"/>

  <!-- ═══ FRONTEND LAYER ═══ -->
  <text x="40" y="560" fill="rgba(255,255,255,0.2)" font-size="11" font-weight="700" letter-spacing="3">F R O N T E N D</text>

  <!-- Card: Next.js 15 -->
  <rect x="30" y="580" width="270" height="170" rx="12" fill="rgba(255,255,255,0.025)" stroke="rgba(255,255,255,0.06)"/>
  <rect x="40" y="595" width="32" height="32" rx="8" fill="rgba(96,165,250,0.15)"/>
  <text x="56" y="617" text-anchor="middle" fill="white" font-size="13" font-weight="700" class="mono">N</text>
  <text x="82" y="608" fill="white" font-size="14" font-weight="700">Next.js 15</text>
  <text x="82" y="624" fill="rgba(255,255,255,0.3)" font-size="11">App Router + Tailwind</text>
  <rect x="218" y="588" width="66" height="20" rx="4" fill="rgba(96,165,250,0.2)"/>
  <text x="251" y="602" text-anchor="middle" fill="#60a5fa" font-size="9" font-weight="700" class="mono">VERCEL</text>
  <text x="50" y="655" fill="rgba(255,255,255,0.4)" font-size="12">· React 19 server components</text>
  <text x="50" y="675" fill="rgba(255,255,255,0.4)" font-size="12">· Fraunces + DM Sans typography</text>
  <text x="50" y="695" fill="rgba(255,255,255,0.4)" font-size="12">· CSS-only animations</text>
  <text x="50" y="715" fill="rgba(255,255,255,0.4)" font-size="12">· Mobile-first (375px base)</text>

  <!-- Card: React Components -->
  <rect x="320" y="580" width="270" height="170" rx="12" fill="rgba(255,255,255,0.025)" stroke="rgba(255,255,255,0.06)"/>
  <rect x="330" y="595" width="32" height="32" rx="8" fill="rgba(103,232,249,0.15)"/>
  <text x="346" y="617" text-anchor="middle" fill="white" font-size="13" font-weight="700" class="mono">R</text>
  <text x="372" y="608" fill="white" font-size="14" font-weight="700">React Components</text>
  <text x="372" y="624" fill="rgba(255,255,255,0.3)" font-size="11">Composable UI</text>
  <rect x="496" y="588" width="80" height="20" rx="4" fill="rgba(103,232,249,0.2)"/>
  <text x="536" y="602" text-anchor="middle" fill="#67e8f9" font-size="9" font-weight="700" class="mono">7 SCREENS</text>
  <text x="340" y="655" fill="rgba(255,255,255,0.4)" font-size="12">· Planet → SVG + sprite render</text>
  <text x="340" y="675" fill="rgba(255,255,255,0.4)" font-size="12">· HabitRow → status + medallion</text>
  <text x="340" y="695" fill="rgba(255,255,255,0.4)" font-size="12">· UrgeModal → 3-option flow</text>
  <text x="340" y="715" fill="rgba(255,255,255,0.4)" font-size="12">· MilestoneCoin → SVG coins</text>

  <!-- Card: Asset System -->
  <rect x="610" y="580" width="270" height="170" rx="12" fill="rgba(255,255,255,0.025)" stroke="rgba(255,255,255,0.06)"/>
  <rect x="620" y="595" width="32" height="32" rx="8" fill="rgba(251,191,36,0.15)"/>
  <text x="636" y="617" text-anchor="middle" fill="white" font-size="13" font-weight="700" class="mono">A</text>
  <text x="662" y="608" fill="white" font-size="14" font-weight="700">Asset System</text>
  <text x="662" y="624" fill="rgba(255,255,255,0.3)" font-size="11">Sprout Lands pack</text>
  <rect x="786" y="588" width="80" height="20" rx="4" fill="rgba(251,191,36,0.2)"/>
  <text x="826" y="602" text-anchor="middle" fill="#fbbf24" font-size="9" font-weight="700" class="mono">PIXEL ART</text>
  <text x="630" y="655" fill="rgba(255,255,255,0.4)" font-size="12">· 25 creature sprites × 5 stages</text>
  <text x="630" y="675" fill="rgba(255,255,255,0.4)" font-size="12">· 35+ decoration sprites</text>
  <text x="630" y="695" fill="rgba(255,255,255,0.4)" font-size="12">· CSS hue-rotate for colors</text>
  <text x="630" y="715" fill="rgba(255,255,255,0.4)" font-size="12">· image-rendering: pixelated</text>

  <!-- Card: Icon System -->
  <rect x="900" y="580" width="270" height="170" rx="12" fill="rgba(255,255,255,0.025)" stroke="rgba(255,255,255,0.06)"/>
  <rect x="910" y="595" width="32" height="32" rx="8" fill="rgba(74,222,128,0.15)"/>
  <text x="926" y="617" text-anchor="middle" fill="white" font-size="13" font-weight="700" class="mono">I</text>
  <text x="952" y="608" fill="white" font-size="14" font-weight="700">Icon System</text>
  <text x="952" y="624" fill="rgba(255,255,255,0.3)" font-size="11">Zero emoji policy</text>
  <rect x="1098" y="588" width="60" height="20" rx="4" fill="rgba(74,222,128,0.2)"/>
  <text x="1128" y="602" text-anchor="middle" fill="#4ade80" font-size="9" font-weight="700" class="mono">LUCIDE</text>
  <text x="920" y="655" fill="rgba(255,255,255,0.4)" font-size="12">· Lucide React (strokeWidth 1.5)</text>
  <text x="920" y="675" fill="rgba(255,255,255,0.4)" font-size="12">· Custom SVG milestone coins</text>
  <text x="920" y="695" fill="rgba(255,255,255,0.4)" font-size="12">· Shield icon for quit habits</text>
  <text x="920" y="715" fill="rgba(255,255,255,0.4)" font-size="12">· Consistent 16-24px sizing</text>

  <!-- Connector: LOCAL STORAGE -->
  <line x1="600" y1="765" x2="600" y2="790" stroke="rgba(255,255,255,0.06)" stroke-width="1"/>
  <rect x="500" y="790" width="200" height="28" rx="4" fill="rgba(255,255,255,0.02)" stroke="rgba(255,255,255,0.08)"/>
  <text x="600" y="809" text-anchor="middle" fill="rgba(255,255,255,0.3)" font-size="9" font-weight="700" letter-spacing="1.5" class="mono">LOCAL STORAGE</text>
  <line x1="600" y1="818" x2="600" y2="843" stroke="rgba(255,255,255,0.06)" stroke-width="1"/>

  <!-- ═══ GAME SYSTEMS LAYER ═══ -->
  <text x="40" y="860" fill="rgba(255,255,255,0.2)" font-size="11" font-weight="700" letter-spacing="3">G A M E   S Y S T E M S</text>

  <!-- Card: Milestone Engine -->
  <rect x="30" y="880" width="270" height="170" rx="12" fill="rgba(255,255,255,0.025)" stroke="rgba(255,255,255,0.06)"/>
  <rect x="40" y="895" width="32" height="32" rx="8" fill="rgba(251,191,36,0.15)"/>
  <text x="56" y="917" text-anchor="middle" fill="white" font-size="13" font-weight="700" class="mono">M</text>
  <text x="82" y="908" fill="white" font-size="14" font-weight="700">Milestone Engine</text>
  <text x="82" y="924" fill="rgba(255,255,255,0.3)" font-size="11">AA-style coins</text>
  <rect x="210" y="888" width="72" height="20" rx="4" fill="rgba(251,191,36,0.2)"/>
  <text x="246" y="902" text-anchor="middle" fill="#fbbf24" font-size="9" font-weight="700" class="mono">13 TIERS</text>
  <text x="50" y="955" fill="rgba(255,255,255,0.4)" font-size="12">· Hours: 2h, 6h, 12h, 24h, 48h, 72h</text>
  <text x="50" y="975" fill="rgba(255,255,255,0.4)" font-size="12">· Days: 7d, 14d, 30d to 365d</text>
  <text x="50" y="995" fill="rgba(255,255,255,0.4)" font-size="12">· Color: stone → bronze → gold</text>
  <text x="50" y="1015" fill="rgba(255,255,255,0.4)" font-size="12">· Re-earnable on quit reset</text>

  <!-- Card: Coin System -->
  <rect x="320" y="880" width="270" height="170" rx="12" fill="rgba(255,255,255,0.025)" stroke="rgba(255,255,255,0.06)"/>
  <rect x="330" y="895" width="32" height="32" rx="8" fill="rgba(74,222,128,0.15)"/>
  <text x="346" y="917" text-anchor="middle" fill="white" font-size="13" font-weight="700" class="mono">C</text>
  <text x="372" y="908" fill="white" font-size="14" font-weight="700">Coin System</text>
  <text x="372" y="924" fill="rgba(255,255,255,0.3)" font-size="11">Earn and spend</text>
  <rect x="490" y="888" width="80" height="20" rx="4" fill="rgba(74,222,128,0.2)"/>
  <text x="530" y="902" text-anchor="middle" fill="#4ade80" font-size="9" font-weight="700" class="mono">ECONOMY</text>
  <text x="340" y="955" fill="rgba(255,255,255,0.4)" font-size="12">· 250 starting coins</text>
  <text x="340" y="975" fill="rgba(255,255,255,0.4)" font-size="12">· +3 per urge survived</text>
  <text x="340" y="995" fill="rgba(255,255,255,0.4)" font-size="12">· +coins per milestone tier</text>
  <text x="340" y="1015" fill="rgba(255,255,255,0.4)" font-size="12">· Spend in World Shop</text>

  <!-- Card: Egg Progression -->
  <rect x="610" y="880" width="270" height="170" rx="12" fill="rgba(255,255,255,0.025)" stroke="rgba(255,255,255,0.06)"/>
  <rect x="620" y="895" width="32" height="32" rx="8" fill="rgba(167,139,250,0.15)"/>
  <text x="636" y="917" text-anchor="middle" fill="white" font-size="13" font-weight="700" class="mono">E</text>
  <text x="662" y="908" fill="white" font-size="14" font-weight="700">Egg Progression</text>
  <text x="662" y="924" fill="rgba(255,255,255,0.3)" font-size="11">72-hour hatch cycle</text>
  <rect x="790" y="888" width="72" height="20" rx="4" fill="rgba(167,139,250,0.2)"/>
  <text x="826" y="902" text-anchor="middle" fill="#a78bfa" font-size="9" font-weight="700" class="mono">CSS ONLY</text>
  <text x="630" y="955" fill="rgba(255,255,255,0.4)" font-size="12">· Fresh → stirring → cracking</text>
  <text x="630" y="975" fill="rgba(255,255,255,0.4)" font-size="12">· Crack overlays via ::after</text>
  <text x="630" y="995" fill="rgba(255,255,255,0.4)" font-size="12">· Wobble + shake + sparkle</text>
  <text x="630" y="1015" fill="rgba(255,255,255,0.4)" font-size="12">· Urge survival speeds hatch</text>

  <!-- Card: Creature Moods -->
  <rect x="900" y="880" width="270" height="170" rx="12" fill="rgba(255,255,255,0.025)" stroke="rgba(255,255,255,0.06)"/>
  <rect x="910" y="895" width="32" height="32" rx="8" fill="rgba(251,113,133,0.15)"/>
  <text x="926" y="917" text-anchor="middle" fill="white" font-size="13" font-weight="700" class="mono">R</text>
  <text x="952" y="908" fill="white" font-size="14" font-weight="700">Creature Moods</text>
  <text x="952" y="924" fill="rgba(255,255,255,0.3)" font-size="11">Emotional states</text>
  <rect x="1090" y="888" width="72" height="20" rx="4" fill="rgba(251,113,133,0.2)"/>
  <text x="1126" y="902" text-anchor="middle" fill="#fb7185" font-size="9" font-weight="700" class="mono">4 STATES</text>
  <text x="920" y="955" fill="rgba(255,255,255,0.4)" font-size="12">· Healthy → bob + blink</text>
  <text x="920" y="975" fill="rgba(255,255,255,0.4)" font-size="12">· Neglected → droopy + dim</text>
  <text x="920" y="995" fill="rgba(255,255,255,0.4)" font-size="12">· Thriving → sparkle + scale</text>
  <text x="920" y="1015" fill="rgba(255,255,255,0.4)" font-size="12">· Sleeping → ZZZ + still</text>

  <!-- Connector: REACT STATE -->
  <line x1="600" y1="1065" x2="600" y2="1090" stroke="rgba(255,255,255,0.06)" stroke-width="1"/>
  <rect x="500" y="1090" width="200" height="28" rx="4" fill="rgba(255,255,255,0.02)" stroke="rgba(255,255,255,0.08)"/>
  <text x="600" y="1109" text-anchor="middle" fill="rgba(255,255,255,0.3)" font-size="9" font-weight="700" letter-spacing="1.5" class="mono">REACT STATE</text>
  <line x1="600" y1="1118" x2="600" y2="1143" stroke="rgba(255,255,255,0.06)" stroke-width="1"/>

  <!-- ═══ DATA LAYER ═══ -->
  <text x="40" y="1160" fill="rgba(255,255,255,0.2)" font-size="11" font-weight="700" letter-spacing="3">D A T A</text>

  <!-- Card: Storage -->
  <rect x="30" y="1180" width="270" height="160" rx="12" fill="rgba(255,255,255,0.025)" stroke="rgba(255,255,255,0.06)"/>
  <rect x="40" y="1195" width="32" height="32" rx="8" fill="rgba(74,222,128,0.15)"/>
  <text x="56" y="1217" text-anchor="middle" fill="white" font-size="13" font-weight="700" class="mono">S</text>
  <text x="82" y="1208" fill="white" font-size="14" font-weight="700">Storage</text>
  <text x="82" y="1224" fill="rgba(255,255,255,0.3)" font-size="11">Zero-server architecture</text>
  <rect x="218" y="1188" width="60" height="20" rx="4" fill="rgba(74,222,128,0.2)"/>
  <text x="248" y="1202" text-anchor="middle" fill="#4ade80" font-size="9" font-weight="700" class="mono">LOCAL</text>
  <text x="50" y="1255" fill="rgba(255,255,255,0.4)" font-size="12">· Web → localStorage</text>
  <text x="50" y="1275" fill="rgba(255,255,255,0.4)" font-size="12">· Native → AsyncStorage</text>
  <text x="50" y="1295" fill="rgba(255,255,255,0.4)" font-size="12">· Save on every state change</text>
  <text x="50" y="1315" fill="rgba(255,255,255,0.4)" font-size="12">· No cloud sync (v1)</text>

  <!-- Card: Habit Records -->
  <rect x="320" y="1180" width="270" height="160" rx="12" fill="rgba(255,255,255,0.025)" stroke="rgba(255,255,255,0.06)"/>
  <rect x="330" y="1195" width="32" height="32" rx="8" fill="rgba(96,165,250,0.15)"/>
  <text x="346" y="1217" text-anchor="middle" fill="white" font-size="13" font-weight="700" class="mono">H</text>
  <text x="372" y="1208" fill="white" font-size="14" font-weight="700">Habit Records</text>
  <text x="372" y="1224" fill="rgba(255,255,255,0.3)" font-size="11">Core data model</text>
  <rect x="496" y="1188" width="66" height="20" rx="4" fill="rgba(96,165,250,0.2)"/>
  <text x="529" y="1202" text-anchor="middle" fill="#60a5fa" font-size="9" font-weight="700" class="mono">HABITS</text>
  <text x="340" y="1255" fill="rgba(255,255,255,0.4)" font-size="12">· id, name, type, color, dates</text>
  <text x="340" y="1275" fill="rgba(255,255,255,0.4)" font-size="12">· Completions map (id:date)</text>
  <text x="340" y="1295" fill="rgba(255,255,255,0.4)" font-size="12">· Creature stage + evolution</text>
  <text x="340" y="1315" fill="rgba(255,255,255,0.4)" font-size="12">· Pause state + reason text</text>

  <!-- Card: Urge Log -->
  <rect x="610" y="1180" width="270" height="160" rx="12" fill="rgba(255,255,255,0.025)" stroke="rgba(255,255,255,0.06)"/>
  <rect x="620" y="1195" width="32" height="32" rx="8" fill="rgba(251,113,133,0.15)"/>
  <text x="636" y="1217" text-anchor="middle" fill="white" font-size="13" font-weight="700" class="mono">U</text>
  <text x="662" y="1208" fill="white" font-size="14" font-weight="700">Urge Log</text>
  <text x="662" y="1224" fill="rgba(255,255,255,0.3)" font-size="11">Trigger patterns</text>
  <rect x="790" y="1188" width="72" height="20" rx="4" fill="rgba(251,113,133,0.2)"/>
  <text x="826" y="1202" text-anchor="middle" fill="#fb7185" font-size="9" font-weight="700" class="mono">JOURNAL</text>
  <text x="630" y="1255" fill="rgba(255,255,255,0.4)" font-size="12">· habitId + timestamp</text>
  <text x="630" y="1275" fill="rgba(255,255,255,0.4)" font-size="12">· Tags: Stress, Boredom, Social</text>
  <text x="630" y="1295" fill="rgba(255,255,255,0.4)" font-size="12">· Free-text note</text>
  <text x="630" y="1315" fill="rgba(255,255,255,0.4)" font-size="12">· Method used + survived flag</text>

  <!-- Card: Progress State -->
  <rect x="900" y="1180" width="270" height="160" rx="12" fill="rgba(255,255,255,0.025)" stroke="rgba(255,255,255,0.06)"/>
  <rect x="910" y="1195" width="32" height="32" rx="8" fill="rgba(251,191,36,0.15)"/>
  <text x="926" y="1217" text-anchor="middle" fill="white" font-size="13" font-weight="700" class="mono">P</text>
  <text x="952" y="1208" fill="white" font-size="14" font-weight="700">Progress State</text>
  <text x="952" y="1224" fill="rgba(255,255,255,0.3)" font-size="11">Coins + milestones</text>
  <rect x="1090" y="1188" width="80" height="20" rx="4" fill="rgba(251,191,36,0.2)"/>
  <text x="1130" y="1202" text-anchor="middle" fill="#fbbf24" font-size="9" font-weight="700" class="mono">PROGRESS</text>
  <text x="920" y="1255" fill="rgba(255,255,255,0.4)" font-size="12">· Coin balance + transactions</text>
  <text x="920" y="1275" fill="rgba(255,255,255,0.4)" font-size="12">· Milestone earned flags</text>
  <text x="920" y="1295" fill="rgba(255,255,255,0.4)" font-size="12">· Owned shop items</text>
  <text x="920" y="1315" fill="rgba(255,255,255,0.4)" font-size="12">· Tend+ subscription state</text>

  <!-- Connector: PRIVACY FIRST -->
  <line x1="600" y1="1355" x2="600" y2="1380" stroke="rgba(255,255,255,0.06)" stroke-width="1"/>
  <rect x="490" y="1380" width="220" height="28" rx="4" fill="rgba(255,255,255,0.02)" stroke="rgba(255,255,255,0.08)"/>
  <text x="600" y="1399" text-anchor="middle" fill="rgba(255,255,255,0.3)" font-size="9" font-weight="700" letter-spacing="1.5" class="mono">PRIVACY FIRST</text>
  <line x1="600" y1="1408" x2="600" y2="1433" stroke="rgba(255,255,255,0.06)" stroke-width="1"/>

  <!-- ═══ DEPLOYMENT LAYER ═══ -->
  <text x="40" y="1450" fill="rgba(255,255,255,0.2)" font-size="11" font-weight="700" letter-spacing="3">D E P L O Y M E N T</text>

  <!-- Card: Vercel -->
  <rect x="70" y="1470" width="330" height="150" rx="12" fill="rgba(255,255,255,0.025)" stroke="rgba(255,255,255,0.06)"/>
  <rect x="80" y="1485" width="32" height="32" rx="8" fill="rgba(96,165,250,0.15)"/>
  <text x="96" y="1507" text-anchor="middle" fill="white" font-size="13" font-weight="700" class="mono">V</text>
  <text x="122" y="1498" fill="white" font-size="14" font-weight="700">Vercel</text>
  <text x="122" y="1514" fill="rgba(255,255,255,0.3)" font-size="11">Edge deployment</text>
  <rect x="318" y="1478" width="56" height="20" rx="4" fill="rgba(96,165,250,0.2)"/>
  <text x="346" y="1492" text-anchor="middle" fill="#60a5fa" font-size="9" font-weight="700" class="mono">WEB</text>
  <text x="90" y="1545" fill="rgba(255,255,255,0.4)" font-size="12">· Automatic deploy on push</text>
  <text x="90" y="1565" fill="rgba(255,255,255,0.4)" font-size="12">· Preview branches</text>
  <text x="90" y="1585" fill="rgba(255,255,255,0.4)" font-size="12">· Edge functions</text>

  <!-- Card: App Store -->
  <rect x="435" y="1470" width="330" height="150" rx="12" fill="rgba(255,255,255,0.025)" stroke="rgba(255,255,255,0.06)"/>
  <rect x="445" y="1485" width="32" height="32" rx="8" fill="rgba(167,139,250,0.15)"/>
  <text x="461" y="1507" text-anchor="middle" fill="white" font-size="13" font-weight="700" class="mono">A</text>
  <text x="487" y="1498" fill="white" font-size="14" font-weight="700">App Store</text>
  <text x="487" y="1514" fill="rgba(255,255,255,0.3)" font-size="11">React Native + Expo</text>
  <rect x="688" y="1478" width="50" height="20" rx="4" fill="rgba(167,139,250,0.2)"/>
  <text x="713" y="1492" text-anchor="middle" fill="#a78bfa" font-size="9" font-weight="700" class="mono">iOS</text>
  <text x="455" y="1545" fill="rgba(255,255,255,0.4)" font-size="12">· Expo managed workflow</text>
  <text x="455" y="1565" fill="rgba(255,255,255,0.4)" font-size="12">· StoreKit for subscriptions</text>
  <text x="455" y="1585" fill="rgba(255,255,255,0.4)" font-size="12">· TestFlight → production</text>

  <!-- Card: Billing -->
  <rect x="800" y="1470" width="330" height="150" rx="12" fill="rgba(255,255,255,0.025)" stroke="rgba(255,255,255,0.06)"/>
  <rect x="810" y="1485" width="32" height="32" rx="8" fill="rgba(251,146,60,0.15)"/>
  <text x="826" y="1507" text-anchor="middle" fill="white" font-size="13" font-weight="700" class="mono">$</text>
  <text x="852" y="1498" fill="white" font-size="14" font-weight="700">Billing</text>
  <text x="852" y="1514" fill="rgba(255,255,255,0.3)" font-size="11">Multi-platform</text>
  <rect x="1038" y="1478" width="80" height="20" rx="4" fill="rgba(251,146,60,0.2)"/>
  <text x="1078" y="1492" text-anchor="middle" fill="#fb923c" font-size="9" font-weight="700" class="mono">PAYMENTS</text>
  <text x="820" y="1545" fill="rgba(255,255,255,0.4)" font-size="12">· Web → Stripe Checkout</text>
  <text x="820" y="1565" fill="rgba(255,255,255,0.4)" font-size="12">· iOS → StoreKit / RevenueCat</text>
  <text x="820" y="1585" fill="rgba(255,255,255,0.4)" font-size="12">· $4.99/mo + $29.99/yr</text>

  <!-- ═══ TECH STACK PILLS ═══ -->
  <rect x="60" y="1680" width="88" height="26" rx="6" fill="rgba(255,255,255,0.06)"/>
  <text x="104" y="1697" text-anchor="middle" fill="white" font-size="11" font-weight="600" class="mono">Next.js 15</text>

  <rect x="160" y="1680" width="72" height="26" rx="6" fill="rgba(96,165,250,0.15)"/>
  <text x="196" y="1697" text-anchor="middle" fill="#60a5fa" font-size="11" font-weight="600" class="mono">React 19</text>

  <rect x="244" y="1680" width="92" height="26" rx="6" fill="rgba(56,189,248,0.15)"/>
  <text x="290" y="1697" text-anchor="middle" fill="#38bdf8" font-size="11" font-weight="600" class="mono">Tailwind CSS</text>

  <rect x="348" y="1680" width="72" height="26" rx="6" fill="rgba(251,191,36,0.15)"/>
  <text x="384" y="1697" text-anchor="middle" fill="#fbbf24" font-size="11" font-weight="600" class="mono">Fraunces</text>

  <rect x="432" y="1680" width="68" height="26" rx="6" fill="rgba(255,255,255,0.06)"/>
  <text x="466" y="1697" text-anchor="middle" fill="white" font-size="11" font-weight="600" class="mono">DM Sans</text>

  <rect x="512" y="1680" width="60" height="26" rx="6" fill="rgba(74,222,128,0.15)"/>
  <text x="542" y="1697" text-anchor="middle" fill="#4ade80" font-size="11" font-weight="600" class="mono">Lucide</text>

  <rect x="584" y="1680" width="100" height="26" rx="6" fill="rgba(251,146,60,0.15)"/>
  <text x="634" y="1697" text-anchor="middle" fill="#fb923c" font-size="11" font-weight="600" class="mono">Sprout Lands</text>

  <rect x="696" y="1680" width="100" height="26" rx="6" fill="rgba(167,139,250,0.15)"/>
  <text x="746" y="1697" text-anchor="middle" fill="#a78bfa" font-size="11" font-weight="600" class="mono">localStorage</text>

  <rect x="808" y="1680" width="56" height="26" rx="6" fill="rgba(251,113,133,0.15)"/>
  <text x="836" y="1697" text-anchor="middle" fill="#fb7185" font-size="11" font-weight="600" class="mono">Stripe</text>

  <rect x="876" y="1680" width="56" height="26" rx="6" fill="rgba(255,255,255,0.06)"/>
  <text x="904" y="1697" text-anchor="middle" fill="white" font-size="11" font-weight="600" class="mono">Vercel</text>

  <rect x="944" y="1680" width="50" height="26" rx="6" fill="rgba(96,165,250,0.15)"/>
  <text x="969" y="1697" text-anchor="middle" fill="#60a5fa" font-size="11" font-weight="600" class="mono">Expo</text>

  <rect x="1006" y="1680" width="72" height="26" rx="6" fill="rgba(74,222,128,0.15)"/>
  <text x="1042" y="1697" text-anchor="middle" fill="#4ade80" font-size="11" font-weight="600" class="mono">StoreKit</text>

  <!-- Footer -->
  <text x="600" y="1790" text-anchor="middle" fill="rgba(255,255,255,0.08)" font-size="11" font-weight="600" letter-spacing="2">TEND — QUIT BAD HABITS. GROW NEW ONES.</text>

</svg>
